# xmcd
#
# Track frame offsets:
#	150
#	22194
#	48871
#	73876
#	93677
#	107143
#	124825
#	146474
#	169094
#	196072
#	226393
#	248311
#	273065
#	286068
#	295202
#	316463
#
# Disc length: 4333 seconds
# Revision: 0
# Processed by: cddbd v1.5.2PL0 Copyright (c) Steve Scherf et al.
# Submitted via: dBpowerAMP V12.0
#
DISCID=e410eb10
DTITLE=Peter Novelli - Peter Novelli
DYEAR=2011
DGENRE=Blues
TTITLE0=Texas 'Tonk
TTITLE1=Just These Blues
TTITLE2=I'm Going To Louisiana
TTITLE3=Lie No Better
TTITLE4=Grand Isle Dawn - April 21, 2010
TTITLE5=Wrong Number
TTITLE6=Since The Hurricane
TTITLE7=Nuthin' To Say
TTITLE8=Open The Gate
TTITLE9=Real Man
TTITLE10=Bulverde, Texas
TTITLE11=Te-Ni-Ne-Ni-Nu
TTITLE12=James Johnson -On Scratch My back
TTITLE13=Raful Neal - On Slim Harpo, Scratch My Back
TTITLE14=Baby Scratch My Back
TTITLE15="Big" Johnnie Thomassie - on New Orleans Drumming
EXTD=
EXTT0=
EXTT1=
EXTT2=
EXTT3=
EXTT4=
EXTT5=
EXTT6=
EXTT7=
EXTT8=
EXTT9=
EXTT10=
EXTT11=
EXTT12=
EXTT13=
EXTT14=
EXTT15=
PLAYORDER=
